# xmcd
#
# Track frame offsets: 
#        150
#        16512
#        34970
#        50577
#        68102
#        89377
#        105697
#        121592
#
# Disc length: 1799 seconds
#
# Revision: 0
# Processed by: cddbd v1.5.2PL0 Copyright (c) Steve Scherf et al.
# Submitted via: ExactAudioCopy v0.90b3
#
DISCID=5c070508
DTITLE=Restless Heart - Tell Me What You Dream
DYEAR=1995
DGENRE=Country
TTITLE0=Let The Heartache Ride
TTITLE1=Say What's In Your Heart
TTITLE2=I Want Everyone To Cry
TTITLE3=Long Lost Friend
TTITLE4=Tell Me What You Dream
TTITLE5=When Someone Loves You
TTITLE6=Big Dreams In A Small Town
TTITLE7=Hummingbird
EXTD=
EXTT0=
EXTT1=
EXTT2=
EXTT3=
EXTT4=
EXTT5=
EXTT6=
EXTT7=
PLAYORDER=
